<svg width="1728" height="1776" viewBox="0 0 1728 1776" fill="none" xmlns="http://www.w3.org/2000/svg">
<path d="M-130.885 1063.59C-73.6394 909.634 101.195 654.617 342.565 866.229C583.935 1077.84 785.687 909.985 863.685 803.53C903.996 760.854 1034.11 679.241 1155.83 750.46C1324.56 849.191 1409.77 639.351 1468.21 612.013C1540.96 577.984 1670.09 637.684 1779.17 720.079C1888.26 802.474 1947.9 751.353 1964.09 715.493" stroke="black" stroke-width="5"/>
<path d="M-223.737 1205.6C-166.687 1051.56 9.75271 797.224 259.105 1012.22C508.457 1227.22 713.354 1060.7 792.143 954.584C832.989 912.136 965.407 831.499 1090.78 904.272C1264.59 1005.16 1349.71 795.279 1409.28 768.42C1483.44 734.988 1616.29 796.268 1728.84 880.137C1841.4 964.006 1901.96 913.272 1918.17 877.422" stroke="black" stroke-width="5"/>
<path d="M-253.878 1261.25C-196.808 1107.21 -20.5261 852.812 228.044 1067.48C476.613 1282.15 681.202 1115.5 759.914 1009.34C800.706 966.873 932.899 886.141 1057.92 958.762C1231.23 1059.44 1316.35 849.561 1375.82 822.656C1449.83 789.165 1582.32 850.29 1694.53 934.014C1806.75 1017.74 1867.22 966.967 1883.42 931.116" stroke="black" stroke-width="5"/>
</svg>
